<svg width="365" height="114" viewBox="0 0 365 114" fill="none" xmlns="http://www.w3.org/2000/svg">
<path d="M66.5 80.75L80.75 66.5L66.5 52.25M47.5 33.25L33.25 47.5L47.5 61.75M37.05 99.75H76.95C84.9307 99.75 88.9211 99.75 91.9694 98.1968C94.6507 96.8306 96.8306 94.6507 98.1968 91.9694C99.75 88.9211 99.75 84.9308 99.75 76.95V37.05C99.75 29.0693 99.75 25.0789 98.1968 22.0306C96.8306 19.3493 94.6507 17.1694 91.9694 15.8032C88.9211 14.25 84.9308 14.25 76.95 14.25H37.05C29.0693 14.25 25.0789 14.25 22.0306 15.8032C19.3493 17.1694 17.1694 19.3493 15.8032 22.0306C14.25 25.0789 14.25 29.0693 14.25 37.05V76.95C14.25 84.9307 14.25 88.9211 15.8032 91.9694C17.1694 94.6507 19.3493 96.8306 22.0306 98.1968C25.0789 99.75 29.0693 99.75 37.05 99.75Z" stroke="white" stroke-width="5" stroke-linecap="round" stroke-linejoin="round"/>
<path d="M131.12 35.6V41.68V47H125.04V18.32H145.88V23.6H131.12V30.04H144.16V35.6H131.12ZM149.471 47V18.44H155.751V47H149.471ZM180.394 47.04L165.914 27.28V47.04H160.434V18.36H167.634L180.394 36.2V18.36H185.714V47.04H180.394ZM193.643 47H187.923L200.883 18.48H207.203L219.963 47H213.883L211.083 40.68H196.643L193.643 47ZM204.163 23.84H204.123L199.323 34.88H208.803L204.163 23.84ZM242.308 47.04L227.828 27.28V47.04H222.348V18.36H229.548L242.308 36.2V18.36H247.628V47.04H242.308ZM278.317 39.36C275.877 43.96 271.157 47.08 265.517 47.08C257.517 47.08 251.037 40.6 251.037 32.6C251.037 24.68 257.517 18.12 265.517 18.12C270.997 18.12 275.637 21.16 278.077 25.52C275.637 26.8 275.437 26.92 272.717 28.24C271.317 25.8 268.597 24.12 265.517 24.12C260.837 24.12 257.037 27.96 257.037 32.6C257.037 37.28 260.837 41.08 265.517 41.08C268.717 41.08 271.517 39.36 272.957 36.64C275.677 38.04 275.757 38.2 278.317 39.36ZM282.205 47V18.44H288.485V47H282.205ZM296.729 47H291.009L303.969 18.48H310.289L323.049 47H316.969L314.169 40.68H299.729L296.729 47ZM307.249 23.84H307.209L302.409 34.88H311.889L307.249 23.84ZM346.194 46.8H325.394V18.32H331.554V41.52H346.194V46.8ZM128.76 95H123.04L136 66.48H142.32L155.08 95H149L146.2 88.68H131.76L128.76 95ZM139.28 71.84H139.24L134.44 82.88H143.92L139.28 71.84ZM158.026 95V66.44H164.306V95H158.026ZM184.932 95H179.212L192.172 66.48H198.492L211.252 95H205.172L202.372 88.68H187.932L184.932 95ZM195.452 71.84H195.412L190.612 82.88H200.092L195.452 71.84ZM214.198 95V66.44H226.518C233.918 66.44 239.478 71.12 239.478 80.56C239.478 88.84 235.238 95 226.518 95H214.198ZM220.478 71.72V89.72H226.078C229.718 89.72 233.198 87.48 233.198 81.16C233.198 75.4 231.158 71.72 224.958 71.72H220.478ZM266.84 66.44L257.36 95H250.28L241 66.44H247.48L253.84 86.52H253.92L260.36 66.44H266.84ZM269.237 95V66.44H275.517V95H269.237ZM278.96 85.52L285.04 86.52C285.68 90.28 289.04 90.8 291.36 90.8C293.56 90.8 296.92 90.16 296.92 87.24C296.92 81.16 279.92 85.08 279.92 74.4C279.92 68.52 285.44 65.76 290.6 65.76C296.56 65.76 302.04 68.36 302.04 74.96L295.96 74.08C295.2 70.76 292.28 70.64 290.32 70.64C288.32 70.64 286 71.48 286 73.88C286 76 287.36 76.48 294.52 78.2C296.64 78.72 303 80.04 303 86.52C303 91.76 298.92 95.68 291.12 95.68C284.72 95.68 278.96 92.56 278.96 85.52ZM334.257 80.6C334.257 88.76 327.577 95.36 319.457 95.36C311.297 95.36 304.697 88.76 304.697 80.6C304.697 72.4 311.297 65.8 319.457 65.8C327.577 65.8 334.257 72.4 334.257 80.6ZM319.457 71.84C314.697 71.84 310.737 75.84 310.737 80.6C310.737 85.36 314.697 89.32 319.457 89.32C324.217 89.32 328.097 85.36 328.097 80.6C328.097 75.84 324.217 71.84 319.457 71.84ZM353.948 84.44H354.188L362.188 95.04H354.508L347.308 84.76H344.228V95.04H337.908V66.44H350.788C357.988 66.44 360.748 70.96 360.748 75.6C360.748 79.48 358.708 83.4 353.948 84.44ZM349.108 71.32H344.228V79.92H349.108C352.108 79.92 354.588 79.24 354.588 75.6C354.588 71.88 352.108 71.32 349.108 71.32Z" fill="white"/>
</svg>
